<?xml version="1.0" standalone="no"?>
<!DOCTYPE svg PUBLIC "-//W3C//DTD SVG 20010904//EN"
 "http://www.w3.org/TR/2001/REC-SVG-20010904/DTD/svg10.dtd">
<svg version="1.0" xmlns="http://www.w3.org/2000/svg"
 width="128.000000pt" height="128.000000pt" viewBox="0 0 128.000000 128.000000"
 preserveAspectRatio="xMidYMid meet">
<metadata>
Created by potrace 1.16, written by Peter Selinger 2001-2019
</metadata>
<g transform="translate(0.000000,128.000000) scale(0.100000,-0.100000)"
fill="#000000" stroke="none">
<path d="M333 1259 c-130 -41 -252 -156 -304 -286 -20 -50 -24 -76 -24 -183 0
-114 2 -131 27 -190 l28 -65 -32 -113 c-17 -62 -28 -115 -26 -118 3 -2 57 10
121 27 115 32 116 32 153 14 135 -64 307 -59 446 11 67 34 168 135 202 202 54
107 71 249 42 357 -43 160 -173 298 -327 346 -83 26 -222 25 -306 -2z m233
-234 c57 -37 81 -124 50 -183 -8 -15 -33 -45 -55 -67 -29 -27 -41 -47 -41 -67
0 -24 -4 -28 -30 -28 -29 0 -30 2 -30 42 0 36 6 48 55 99 61 64 68 90 34 133
-16 20 -29 26 -60 26 -41 0 -79 -26 -79 -55 0 -10 -10 -15 -34 -15 -34 0 -34
1 -26 32 26 90 139 134 216 83z"/>
<path d="M1045 742 c-19 -139 -72 -249 -165 -342 -93 -93 -203 -146 -342 -165
l-48 -6 16 -31 c28 -54 111 -128 182 -161 63 -30 73 -32 182 -32 97 1 123 4
163 23 l49 22 95 -26 c52 -14 97 -23 100 -20 3 3 -6 48 -21 99 l-26 94 22 49
c19 41 22 67 23 164 0 109 -2 119 -32 182 -33 71 -107 154 -161 182 l-31 16
-6 -48z"/>
</g>
</svg>
