<?xml version="1.0" standalone="no"?>
<!DOCTYPE svg PUBLIC "-//W3C//DTD SVG 20010904//EN"
 "http://www.w3.org/TR/2001/REC-SVG-20010904/DTD/svg10.dtd">
<svg version="1.0" xmlns="http://www.w3.org/2000/svg"
 width="128.000000pt" height="128.000000pt" viewBox="0 0 128.000000 128.000000"
 preserveAspectRatio="xMidYMid meet">
<metadata>
Created by potrace 1.16, written by Peter Selinger 2001-2019
</metadata>
<g transform="translate(0.000000,128.000000) scale(0.100000,-0.100000)"
fill="#000000" stroke="none">
<path d="M482 1265 c-30 -7 -92 -32 -140 -55 -123 -61 -214 -154 -275 -281
-54 -111 -67 -169 -67 -289 0 -120 13 -178 67 -289 63 -131 153 -221 284 -284
111 -54 169 -67 289 -67 120 0 178 13 289 67 75 36 108 59 166 118 59 58 82
91 118 166 54 111 67 169 67 289 0 120 -13 178 -67 289 -63 131 -153 221 -284
284 -52 25 -118 50 -147 56 -70 15 -234 13 -300 -4z m183 -425 l200 -200 -200
-200 c-178 -178 -225 -218 -225 -193 0 4 87 94 192 200 l193 193 -193 193
c-105 106 -192 196 -192 200 0 25 47 -15 225 -193z"/>
</g>
</svg>
