<?xml version="1.0" standalone="no"?>
<!DOCTYPE svg PUBLIC "-//W3C//DTD SVG 20010904//EN"
 "http://www.w3.org/TR/2001/REC-SVG-20010904/DTD/svg10.dtd">
<svg version="1.0" xmlns="http://www.w3.org/2000/svg"
 width="512.000000pt" height="512.000000pt" viewBox="0 0 512.000000 512.000000"
 preserveAspectRatio="xMidYMid meet">
<metadata>
Created by potrace 1.16, written by Peter Selinger 2001-2019
</metadata>
<g transform="translate(0.000000,512.000000) scale(0.100000,-0.100000)"
fill="#000000" stroke="none">
<path d="M203 4958 c-174 -172 -196 -198 -191 -231 3 -19 32 5 192 163 103
102 192 193 197 203 8 14 5 17 -17 17 -21 0 -60 -33 -181 -152z"/>
<path d="M303 4858 c-140 -139 -264 -265 -275 -281 -10 -15 -18 -37 -16 -50 3
-18 49 23 292 263 158 157 292 293 297 303 8 14 5 17 -17 17 -22 0 -75 -47
-281 -252z"/>
<path d="M402 4758 c-194 -194 -362 -365 -373 -381 -11 -15 -19 -37 -17 -50 4
-18 67 40 392 363 213 212 392 393 397 403 8 14 5 17 -18 17 -22 0 -89 -62
-381 -352z"/>
<path d="M502 4658 c-249 -249 -462 -465 -473 -481 -11 -15 -19 -37 -17 -50 4
-18 84 57 492 463 268 267 492 493 497 503 8 14 5 17 -18 17 -22 0 -104 -76
-481 -452z"/>
<path d="M602 4558 c-304 -304 -562 -565 -573 -581 -11 -15 -19 -37 -17 -50 4
-18 101 75 592 563 323 322 592 593 597 603 8 14 5 17 -18 17 -23 0 -118 -91
-581 -552z"/>
<path d="M702 4458 c-359 -359 -662 -665 -673 -681 -11 -15 -19 -37 -17 -50 4
-18 118 92 692 663 378 377 692 693 697 703 8 14 5 17 -18 17 -23 0 -133 -106
-681 -652z"/>
<path d="M802 4358 c-414 -414 -762 -765 -773 -781 -11 -15 -19 -37 -17 -50 4
-18 136 109 792 763 433 432 792 793 797 803 8 14 5 17 -18 17 -23 0 -148
-120 -781 -752z"/>
<path d="M902 4258 c-469 -469 -862 -865 -873 -881 -11 -15 -19 -37 -17 -50 3
-19 32 6 195 166 l191 189 -19 -54 c-10 -29 -18 -66 -19 -82 0 -25 -29 -59
-175 -207 -138 -139 -175 -182 -175 -203 0 -14 3 -26 7 -26 4 0 84 77 179 171
l172 172 21 -44 21 -43 -200 -201 c-160 -162 -200 -207 -200 -229 0 -22 3 -25
18 -17 9 5 107 100 217 210 l199 201 33 -32 33 -32 -250 -251 c-203 -204 -250
-257 -250 -279 0 -22 3 -25 17 -17 10 5 130 122 268 260 l249 251 33 -32 33
-32 -300 -301 c-246 -247 -300 -306 -300 -329 0 -22 3 -25 18 -17 9 5 152 145
317 310 l299 301 33 -32 33 -32 -350 -351 c-289 -290 -350 -356 -350 -378 0
-23 3 -26 18 -18 9 5 174 167 367 360 l349 351 33 -32 33 -32 -400 -401 c-331
-332 -400 -406 -400 -428 0 -23 3 -26 17 -18 10 5 198 190 418 410 l399 401
33 -32 33 -32 -450 -451 c-374 -375 -450 -456 -450 -478 0 -23 3 -26 18 -18 9
5 219 212 467 460 l449 451 33 -32 33 -32 -500 -501 c-417 -418 -500 -505
-500 -528 0 -23 3 -26 18 -18 9 5 242 235 517 510 l499 501 33 -32 33 -32
-550 -551 c-460 -460 -550 -555 -550 -578 0 -23 3 -26 18 -18 9 5 264 257 567
560 l549 551 33 -32 33 -32 -600 -601 c-502 -503 -600 -605 -600 -628 0 -23 3
-26 18 -18 9 5 287 280 617 610 l599 601 33 -32 33 -32 -650 -651 c-545 -546
-650 -655 -650 -678 0 -23 3 -26 18 -18 9 5 309 302 667 660 l650 651 32 -32
33 -32 -700 -701 c-588 -588 -700 -705 -700 -728 0 -23 3 -26 18 -18 9 5 332
325 717 710 l700 701 32 -32 33 -32 -750 -751 c-630 -631 -750 -755 -750 -778
0 -23 3 -26 18 -18 9 5 354 347 767 760 l750 751 32 -32 33 -32 -800 -801
c-673 -674 -800 -805 -800 -828 0 -23 3 -26 18 -18 9 5 377 370 817 810 l800
801 32 -32 33 -32 -850 -851 c-716 -716 -850 -855 -850 -878 0 -23 3 -26 18
-18 9 5 399 392 867 860 l850 851 32 -32 33 -32 -900 -901 c-759 -759 -900
-905 -900 -928 0 -23 3 -26 18 -18 9 5 422 415 917 910 l900 901 32 -32 33
-32 -925 -926 c-509 -509 -925 -929 -925 -933 0 -4 12 -7 27 -7 23 0 177 149
943 915 l916 915 32 -33 32 -32 -866 -865 c-476 -476 -870 -873 -875 -883 -8
-14 -5 -17 18 -17 23 0 164 136 893 865 l866 865 32 -33 32 -32 -816 -815
c-448 -448 -820 -823 -825 -832 -8 -15 -5 -18 18 -18 23 0 157 129 843 815
l816 815 32 -33 32 -32 -766 -765 c-421 -421 -770 -773 -775 -782 -8 -15 -5
-18 18 -18 23 0 149 122 793 765 l766 765 32 -33 32 -32 -716 -715 c-393 -393
-720 -723 -725 -732 -8 -15 -5 -18 18 -18 23 0 142 114 743 715 l716 715 32
-33 32 -32 -666 -665 c-366 -366 -670 -673 -675 -682 -8 -15 -5 -18 18 -18 23
0 135 107 693 665 530 530 668 663 678 653 10 -10 222 197 1037 1012 740 740
1031 1037 1047 1070 15 30 118 141 300 326 225 227 278 286 278 307 0 15 -3
27 -7 27 -4 0 -125 -118 -269 -261 -208 -207 -263 -258 -267 -243 -25 88 -46
59 262 368 230 231 281 287 281 310 0 22 -3 25 -17 17 -10 -5 -142 -134 -293
-285 l-274 -276 -33 32 -33 32 325 326 c267 268 325 331 325 353 0 23 -3 26
-17 18 -10 -5 -166 -158 -347 -339 l-328 -329 -49 15 -49 16 395 396 c324 325
395 401 395 423 0 15 -3 27 -7 27 -4 0 -201 -193 -438 -430 -240 -239 -439
-430 -448 -430 -56 0 -125 -65 -932 -871 -662 -661 -833 -827 -843 -817 -10
10 260 285 1328 1353 1135 1135 1340 1345 1340 1368 0 23 -3 26 -17 18 -10 -5
-621 -613 -1358 -1350 l-1340 -1341 -32 32 -33 32 1390 1391 c1169 1169 1390
1395 1390 1418 0 15 -3 27 -7 27 -4 0 -638 -630 -1408 -1400 l-1401 -1400 -32
32 -32 33 1376 1375 c756 756 1380 1383 1385 1393 8 14 5 17 -18 17 -23 0
-238 -210 -1403 -1375 l-1376 -1375 -32 33 -32 32 1326 1325 c729 729 1330
1333 1335 1343 8 14 5 17 -18 17 -23 0 -231 -203 -1353 -1325 l-1326 -1325
-32 33 -32 32 1276 1275 c701 701 1280 1283 1285 1293 8 14 5 17 -18 17 -23 0
-224 -196 -1303 -1275 l-1276 -1275 -32 33 -32 32 1226 1225 c674 674 1230
1233 1235 1243 8 14 5 17 -18 17 -23 0 -216 -189 -1253 -1225 l-1226 -1225
-32 33 -32 32 1176 1175 c646 646 1180 1183 1185 1193 8 14 5 17 -18 17 -23 0
-209 -181 -1203 -1175 l-1176 -1175 -32 33 -32 32 1126 1125 c619 619 1130
1133 1135 1143 8 14 5 17 -18 17 -23 0 -202 -174 -1153 -1125 l-1126 -1125
-32 33 -32 32 1076 1075 c591 591 1080 1083 1085 1093 8 14 5 17 -18 17 -23 0
-194 -167 -1103 -1075 l-1076 -1075 -32 33 -32 32 1026 1025 c564 564 1030
1033 1035 1043 8 14 5 17 -18 17 -23 0 -187 -160 -1053 -1025 l-1026 -1025
-32 33 -32 32 976 975 c536 536 980 983 985 993 8 14 5 17 -18 17 -23 0 -180
-152 -1003 -975 l-976 -975 -32 33 -32 32 926 925 c509 509 930 933 935 943 8
14 5 17 -18 17 -23 0 -173 -145 -953 -925 l-926 -925 -32 33 -32 32 876 875
c481 481 880 883 885 893 8 14 5 17 -18 17 -23 0 -165 -138 -903 -875 l-876
-875 -32 33 -32 32 826 825 c454 454 830 833 835 843 8 14 5 17 -18 17 -23 0
-158 -130 -853 -825 l-826 -825 -32 33 -32 32 776 775 c426 426 780 783 785
793 8 14 5 17 -18 17 -23 0 -151 -123 -803 -775 l-776 -775 -32 33 -32 32 726
725 c399 399 730 733 735 743 8 14 5 17 -18 17 -23 0 -143 -116 -753 -725
l-726 -725 -32 33 -32 32 676 675 c371 371 680 683 685 693 8 14 5 17 -18 17
-23 0 -136 -109 -703 -675 l-676 -676 -42 24 -41 23 635 635 c349 348 640 642
645 652 8 14 5 17 -18 17 -23 0 -133 -105 -678 -649 l-650 -649 -52 -5 c-29
-3 -67 -13 -85 -22 -18 -10 260 276 630 647 364 365 662 667 662 671 0 4 -12
7 -27 7 -23 0 -168 -140 -881 -852z"/>
<path d="M3196 1950 c-1054 -1053 -1922 -1923 -1927 -1932 -8 -15 -5 -18 18
-18 24 0 312 284 1911 1883 1036 1035 1892 1894 1903 1910 11 15 19 37 17 50
-4 18 -331 -304 -1922 -1893z"/>
<path d="M3296 1850 c-999 -998 -1822 -1823 -1827 -1832 -8 -15 -5 -18 18 -18
24 0 298 270 1811 1783 981 980 1792 1794 1803 1810 11 15 19 37 17 50 -4 18
-314 -287 -1822 -1793z"/>
<path d="M3396 1750 c-944 -943 -1722 -1723 -1727 -1732 -8 -15 -5 -18 18 -18
24 0 283 255 1711 1683 926 925 1692 1694 1703 1710 11 15 19 37 17 50 -4 18
-296 -270 -1722 -1693z"/>
<path d="M3496 1650 c-889 -888 -1622 -1623 -1627 -1632 -8 -15 -5 -18 18 -18
24 0 269 241 1611 1583 871 870 1592 1594 1603 1610 11 15 19 37 17 50 -4 18
-279 -252 -1622 -1593z"/>
<path d="M3596 1550 c-834 -833 -1522 -1523 -1527 -1532 -8 -15 -5 -18 18 -18
23 0 254 226 1511 1483 816 815 1492 1494 1503 1510 11 15 19 37 17 50 -4 18
-262 -235 -1522 -1493z"/>
<path d="M3696 1450 c-779 -778 -1422 -1423 -1427 -1432 -8 -15 -5 -18 18 -18
23 0 239 212 1411 1383 761 760 1392 1394 1403 1410 11 15 19 37 17 50 -4 18
-245 -218 -1422 -1393z"/>
<path d="M3796 1350 c-724 -723 -1322 -1323 -1327 -1332 -8 -15 -5 -18 18 -18
23 0 225 197 1311 1283 706 705 1292 1294 1303 1310 11 15 19 37 17 50 -4 18
-227 -201 -1322 -1293z"/>
<path d="M3896 1250 c-669 -668 -1222 -1223 -1227 -1232 -8 -15 -5 -18 18 -18
23 0 210 183 1211 1182 651 651 1192 1195 1203 1211 11 15 19 37 17 50 -4 18
-210 -183 -1222 -1193z"/>
<path d="M3996 1150 c-614 -613 -1122 -1123 -1127 -1132 -8 -15 -5 -18 18 -18
23 0 196 168 1111 1082 596 596 1092 1095 1103 1111 11 15 19 37 17 50 -4 18
-193 -166 -1122 -1093z"/>
<path d="M4096 1050 c-559 -558 -1022 -1023 -1027 -1033 -8 -14 -5 -17 18 -17
23 0 181 153 1011 983 541 540 992 994 1003 1010 11 15 19 37 17 50 -4 18
-175 -149 -1022 -993z"/>
<path d="M4196 950 c-504 -503 -922 -923 -927 -932 -8 -15 -5 -18 18 -18 23 0
167 139 911 882 486 486 892 895 903 911 11 15 19 37 17 50 -4 18 -158 -132
-922 -893z"/>
<path d="M4296 850 c-449 -448 -822 -823 -827 -832 -8 -15 -5 -18 18 -18 23 0
152 124 811 783 431 430 792 794 803 810 11 15 19 37 17 50 -4 18 -141 -114
-822 -793z"/>
<path d="M4396 750 c-394 -393 -722 -723 -727 -732 -8 -15 -5 -18 18 -18 23 0
137 110 711 683 376 375 692 694 703 710 11 15 19 37 17 50 -4 18 -124 -97
-722 -693z"/>
<path d="M4496 650 c-339 -338 -622 -623 -627 -632 -8 -15 -5 -18 18 -18 23 0
123 95 611 583 321 320 592 594 603 610 11 15 19 37 17 50 -4 18 -106 -80
-622 -593z"/>
<path d="M4596 550 c-284 -283 -522 -523 -527 -533 -8 -14 -5 -17 18 -17 23 0
108 81 511 483 266 265 492 494 503 510 11 15 19 37 17 50 -4 18 -89 -62 -522
-493z"/>
<path d="M4696 450 c-229 -228 -422 -423 -427 -432 -8 -15 -5 -18 18 -18 22 0
93 66 411 383 211 210 392 394 403 410 11 15 19 37 17 50 -4 18 -72 -45 -422
-393z"/>
<path d="M4796 350 c-174 -173 -322 -323 -327 -332 -8 -15 -5 -18 17 -18 23 0
80 52 312 282 156 156 293 295 303 311 11 15 19 37 17 50 -4 18 -54 -28 -322
-293z"/>
<path d="M4896 250 c-119 -118 -222 -223 -227 -232 -8 -15 -5 -18 17 -18 21 0
65 37 211 183 205 202 226 227 221 260 -3 19 -37 -11 -222 -193z"/>
<path d="M4996 150 c-136 -133 -149 -150 -111 -150 18 0 49 23 111 82 102 98
127 130 122 161 -3 19 -19 7 -122 -93z"/>
</g>
</svg>
