<?xml version="1.0" standalone="no"?>
<!DOCTYPE svg PUBLIC "-//W3C//DTD SVG 20010904//EN"
 "http://www.w3.org/TR/2001/REC-SVG-20010904/DTD/svg10.dtd">
<svg version="1.0" xmlns="http://www.w3.org/2000/svg"
 width="128.000000pt" height="128.000000pt" viewBox="0 0 128.000000 128.000000"
 preserveAspectRatio="xMidYMid meet">
<metadata>
Created by potrace 1.16, written by Peter Selinger 2001-2019
</metadata>
<g transform="translate(0.000000,128.000000) scale(0.100000,-0.100000)"
fill="#000000" stroke="none">
<path d="M873 1164 c-57 -21 -129 -87 -161 -148 -23 -44 -27 -63 -27 -136 0
-73 4 -92 27 -136 59 -112 164 -170 292 -162 117 8 195 59 245 160 27 52 31
72 31 138 0 124 -55 216 -164 272 -54 28 -182 34 -243 12z m195 -219 c3 -25
-103 -155 -127 -155 -21 0 -73 102 -65 125 9 23 47 14 59 -12 5 -13 12 -23 15
-23 3 1 21 21 40 46 37 48 73 56 78 19z"/>
<path d="M48 963 c-14 -9 -31 -27 -37 -40 -15 -33 -15 -733 0 -766 26 -57 21
-57 574 -57 l507 0 34 34 34 34 0 195 0 195 -48 -18 c-176 -67 -361 3 -453
172 -32 60 -34 68 -34 165 l0 103 -275 0 c-238 0 -279 -3 -302 -17z m333 -228
c63 -33 87 -120 51 -180 -19 -30 -19 -30 7 -64 24 -31 26 -43 26 -125 l0 -91
-145 0 -145 0 0 91 c0 82 2 94 26 125 26 34 26 34 7 64 -66 109 58 239 173
180z m464 -435 l0 -25 -123 -3 c-102 -2 -123 0 -128 13 -3 8 -3 22 0 30 5 13
26 15 128 13 l123 -3 0 -25z"/>
<path d="M280 478 c-33 -18 -50 -53 -50 -105 l0 -43 91 0 91 0 -4 56 c-5 62
-26 90 -73 99 -17 3 -41 0 -55 -7z"/>
</g>
</svg>
