<?xml version="1.0" standalone="no"?>
<!DOCTYPE svg PUBLIC "-//W3C//DTD SVG 20010904//EN"
 "http://www.w3.org/TR/2001/REC-SVG-20010904/DTD/svg10.dtd">
<svg version="1.0" xmlns="http://www.w3.org/2000/svg"
 width="128.000000pt" height="128.000000pt" viewBox="0 0 128.000000 128.000000"
 preserveAspectRatio="xMidYMid meet">
<metadata>
Created by potrace 1.16, written by Peter Selinger 2001-2019
</metadata>
<g transform="translate(0.000000,128.000000) scale(0.100000,-0.100000)"
fill="#000000" stroke="none">
<path d="M502 1168 c-7 -29 -14 -34 -65 -47 -56 -15 -58 -14 -73 7 -17 24 -35
27 -64 12 -16 -8 -17 -15 -8 -46 9 -35 8 -39 -30 -76 -37 -38 -41 -39 -76 -30
-31 9 -38 8 -46 -8 -15 -29 -12 -47 11 -64 20 -14 21 -16 7 -72 -13 -52 -18
-59 -46 -66 -27 -7 -32 -13 -32 -38 0 -25 5 -31 32 -38 29 -7 34 -14 46 -66
14 -55 14 -58 -7 -72 -23 -17 -26 -35 -11 -64 8 -16 15 -17 46 -8 35 9 39 8
76 -30 38 -37 39 -41 30 -76 -9 -31 -8 -38 8 -46 29 -15 47 -12 64 11 14 21
17 21 72 7 52 -12 59 -17 66 -46 7 -27 13 -32 38 -32 25 0 31 5 38 32 7 29 14
34 65 47 56 15 58 14 73 -7 17 -24 35 -27 64 -12 16 8 17 15 8 46 -9 35 -8 39
30 76 37 38 41 39 76 30 31 -9 38 -8 46 8 15 29 12 47 -12 64 -21 15 -22 17
-7 73 13 51 18 58 47 65 27 7 32 13 32 38 0 25 -5 31 -32 38 -29 7 -34 14 -47
65 -15 56 -14 58 7 73 24 17 27 35 12 64 -8 16 -15 17 -46 8 -35 -9 -39 -8
-76 30 -38 37 -39 41 -30 76 9 31 8 38 -8 46 -29 15 -47 12 -64 -12 -15 -21
-17 -22 -73 -7 -51 13 -58 18 -65 47 -7 27 -13 32 -38 32 -25 0 -31 -5 -38
-32z m137 -175 c174 -62 228 -292 102 -435 -100 -115 -293 -118 -398 -7 -123
130 -87 350 70 431 75 38 141 41 226 11z"/>
<path d="M489 983 c-15 -2 -50 -18 -79 -36 -167 -101 -147 -357 32 -431 43
-18 144 -21 184 -6 l27 11 -31 32 c-18 18 -32 40 -32 49 0 18 -25 42 -37 35
-4 -3 -33 7 -63 22 l-55 26 -14 87 c-8 48 -12 91 -8 95 4 4 47 0 95 -8 l87
-14 26 -55 c15 -30 25 -59 22 -63 -7 -12 17 -37 35 -37 9 0 31 -14 49 -32 l32
-31 11 27 c15 40 12 141 -6 184 -19 46 -68 98 -115 122 -38 20 -116 31 -160
23z"/>
<path d="M488 807 c29 -31 16 -44 -15 -15 l-23 21 1 -34 c2 -64 12 -81 57 -98
l42 -15 32 32 32 32 -15 42 c-17 45 -34 55 -98 57 l-34 1 21 -23z"/>
<path d="M1040 640 c-16 -13 -38 -19 -60 -17 -53 3 -50 -24 9 -89 32 -35 53
-68 57 -90 25 -135 -74 -238 -203 -212 -30 7 -59 24 -98 59 -63 59 -92 62 -87
10 1 -20 -5 -43 -18 -61 -26 -36 -25 -41 8 -73 34 -32 36 -33 74 -6 24 17 35
20 61 12 27 -7 33 -15 41 -51 l9 -42 47 0 47 0 9 42 c8 36 14 44 41 51 26 8
37 5 61 -12 39 -27 43 -27 75 7 32 34 33 36 6 74 -17 24 -20 35 -12 61 7 27
15 33 51 41 l42 9 0 47 0 47 -42 9 c-36 8 -44 14 -51 41 -8 26 -5 37 12 61 27
39 27 43 -7 75 -33 32 -39 33 -72 7z"/>
<path d="M954 474 c-18 -23 -22 -24 -52 -13 -32 11 -36 10 -63 -17 -26 -27
-28 -32 -19 -64 9 -32 8 -37 -15 -55 -32 -26 -31 -31 5 -50 67 -35 162 -8 195
54 19 38 19 104 0 141 -19 37 -26 37 -51 4z"/>
</g>
</svg>
