<svg id="Layer_1" enable-background="new 0 0 512 512" height="512" viewBox="0 0 512 512" width="512" xmlns="http://www.w3.org/2000/svg"><g><path d="m251 200.982h82c1.657 0 3-1.343 3-3v-173c0-13.255-10.745-24-24-24h-211.123c-2.39 0-2.767 3.434-.434 3.952l122.507 27.228c14.74 3.26 25.05 16.11 25.05 31.24v134.58c0 1.657 1.343 3 3 3z"/><path d="m251 464.982h61c13.255 0 24-10.745 24-24v-126c0-1.105-.895-2-2-2h-84c-1.105 0-2 .895-2 2v147c0 1.657 1.343 3 3 3z"/><path d="m219.48 47.782-209.74-46.61c-4.956-1.108-9.74 2.655-9.74 7.81v448c0 3.75 2.6 7 6.26 7.81l206.27 45.84c9.936 2.229 19.47-5.347 19.47-15.62v-431.61c0-7.56-5.15-13.99-12.52-15.62zm-51.48 225.2c-8.84 0-16-7.16-16-16s7.16-16 16-16 16 7.16 16 16-7.16 16-16 16z"/><path d="m509.66 251.322-90.34-90.34c-6.273-6.252-16.357-6.262-22.64 0l-20.68 20.68c-6.24 6.24-6.24 16.4 0 22.64l12.69 12.68h-124.69c-8.82 0-16 7.18-16 16v48c0 8.82 7.18 16 16 16h124.69l-12.69 12.68c-6.24 6.24-6.24 16.4 0 22.64l20.68 20.68c6.24 6.24 16.4 6.24 22.64 0l90.34-90.34c3.12-3.13 3.12-8.191 0-11.32z"/></g></svg>