<?xml version="1.0" standalone="no"?>
<!DOCTYPE svg PUBLIC "-//W3C//DTD SVG 20010904//EN"
 "http://www.w3.org/TR/2001/REC-SVG-20010904/DTD/svg10.dtd">
<svg version="1.0" xmlns="http://www.w3.org/2000/svg"
 width="128.000000pt" height="128.000000pt" viewBox="0 0 128.000000 128.000000"
 preserveAspectRatio="xMidYMid meet">
<metadata>
Created by potrace 1.16, written by Peter Selinger 2001-2019
</metadata>
<g transform="translate(0.000000,128.000000) scale(0.100000,-0.100000)"
fill="#000000" stroke="none">
<path d="M543 1265 c-32 -14 -43 -38 -23 -50 5 -3 31 1 57 10 195 66 360 -178
226 -335 -89 -104 -233 -106 -321 -5 -42 47 -52 74 -52 139 0 37 7 67 25 100
31 59 32 78 3 74 -15 -2 -31 -18 -46 -45 l-23 -43 -173 0 c-139 0 -176 -3
-194 -16 l-22 -15 0 -523 c0 -494 1 -524 18 -539 17 -15 75 -17 624 -17 573 0
606 1 621 18 15 17 17 69 17 540 l0 521 -22 15 c-18 13 -55 16 -195 16 l-173
0 -19 38 c-43 84 -127 132 -231 131 -36 0 -80 -6 -97 -14z m-160 -262 c3 -32
8 -68 12 -80 l7 -23 -181 0 -181 0 0 73 c0 41 3 77 7 80 3 4 79 7 168 7 l163
0 5 -57z m855 -25 l3 -78 -182 0 -181 0 7 23 c4 12 9 48 12 80 l5 57 167 -2
166 -3 3 -77z m-792 -136 c6 -9 35 -31 65 -47 47 -26 64 -30 129 -30 83 0 129
17 181 66 l31 29 194 0 194 0 0 -398 c0 -296 -3 -401 -12 -410 -17 -17 -1159
-17 -1176 0 -9 9 -12 114 -12 410 l0 398 198 0 c178 0 198 -2 208 -18z"/>
<path d="M168 631 c-29 -26 -33 -35 -33 -81 0 -46 4 -55 33 -81 l33 -29 347 2
c301 3 347 5 347 18 0 13 -46 16 -336 20 -313 5 -338 6 -358 24 -27 24 -27 68
0 92 20 18 42 19 441 19 l420 0 19 -24 c44 -54 11 -102 -76 -109 -46 -4 -55
-8 -55 -23 0 -17 8 -19 65 -19 57 0 68 3 97 29 30 26 33 35 32 82 0 45 -5 56
-32 81 l-32 28 -440 0 -440 0 -32 -29z"/>
<path d="M280 550 c0 -20 7 -20 360 -20 353 0 360 0 360 20 0 20 -7 20 -360
20 -353 0 -360 0 -360 -20z"/>
<path d="M190 367 c-35 -17 -62 -74 -56 -116 8 -49 31 -79 73 -90 56 -16 827
-14 873 2 70 24 89 122 35 184 l-23 28 -439 3 c-338 1 -444 -1 -463 -11z m890
-57 c11 -11 20 -31 20 -45 0 -14 -9 -34 -20 -45 -19 -19 -33 -20 -440 -20
-407 0 -421 1 -440 20 -11 11 -20 31 -20 45 0 14 9 34 20 45 19 19 33 20 440
20 407 0 421 -1 440 -20z"/>
<path d="M590 1160 c-12 -12 -20 -33 -20 -53 0 -20 -8 -39 -20 -50 -16 -14
-20 -29 -20 -85 0 -40 5 -73 12 -80 16 -16 180 -16 196 0 7 7 12 41 12 85 0
62 -3 74 -20 83 -14 8 -20 21 -20 45 0 44 -29 75 -70 75 -17 0 -39 -9 -50 -20z"/>
</g>
</svg>
