<?xml version="1.0" standalone="no"?>
<!DOCTYPE svg PUBLIC "-//W3C//DTD SVG 20010904//EN"
 "http://www.w3.org/TR/2001/REC-SVG-20010904/DTD/svg10.dtd">
<svg version="1.0" xmlns="http://www.w3.org/2000/svg"
 width="128.000000pt" height="128.000000pt" viewBox="0 0 128.000000 128.000000"
 preserveAspectRatio="xMidYMid meet">
<metadata>
Created by potrace 1.16, written by Peter Selinger 2001-2019
</metadata>
<g transform="translate(0.000000,128.000000) scale(0.100000,-0.100000)"
fill="#000000" stroke="none">
<path d="M482 1265 c-30 -7 -92 -32 -140 -55 -123 -61 -214 -154 -275 -281
-54 -111 -67 -169 -67 -289 0 -120 13 -178 67 -289 63 -131 153 -221 284 -284
111 -54 169 -67 289 -67 120 0 178 13 289 67 75 36 108 59 166 118 59 58 82
91 118 166 54 111 67 169 67 289 0 120 -13 178 -67 289 -63 131 -153 221 -284
284 -52 25 -118 50 -147 56 -70 15 -234 13 -300 -4z m249 -125 c205 -39 379
-220 412 -429 41 -266 -159 -531 -432 -574 -209 -32 -433 89 -526 285 -56 119
-67 212 -39 327 67 269 324 440 585 391z"/>
<path d="M540 1073 c-56 -11 -153 -65 -205 -114 -63 -60 -119 -163 -130 -241
l-7 -48 30 0 c38 0 60 -23 42 -45 -7 -8 -26 -15 -42 -15 l-30 0 7 -47 c11 -74
58 -167 116 -228 59 -63 163 -119 241 -130 l47 -7 3 38 c3 34 6 39 28 39 22 0
25 -5 28 -39 l3 -38 47 7 c78 11 182 67 241 130 58 61 105 154 116 228 7 45 6
47 -17 47 -13 0 -33 6 -44 14 -27 20 -7 50 35 54 32 3 32 4 26 45 -12 71 -61
164 -116 222 -60 63 -163 119 -241 130 -44 7 -48 5 -48 -13 0 -35 -11 -52 -35
-52 -23 0 -35 17 -35 51 0 19 -9 21 -60 12z m-3 -285 l103 -103 59 59 c60 59
84 67 98 30 7 -18 -132 -164 -157 -164 -20 0 -250 231 -250 251 0 20 9 29 29
29 9 0 62 -46 118 -102z"/>
</g>
</svg>
